<svg id="visual" viewBox="0 0 960 540" width="960" height="540" xmlns="http://www.w3.org/2000/svg" xmlns:xlink="http://www.w3.org/1999/xlink" version="1.1"><rect x="0" y="0" width="960" height="540" fill="#ffffff"></rect><defs><linearGradient id="grad1_0" x1="43.8%" y1="0%" x2="100%" y2="100%"><stop offset="14.444444444444446%" stop-color="#ffffff" stop-opacity="1"></stop><stop offset="85.55555555555554%" stop-color="#ffffff" stop-opacity="1"></stop></linearGradient></defs><defs><linearGradient id="grad2_0" x1="0%" y1="0%" x2="56.3%" y2="100%"><stop offset="14.444444444444446%" stop-color="#ffffff" stop-opacity="1"></stop><stop offset="85.55555555555554%" stop-color="#ffffff" stop-opacity="1"></stop></linearGradient></defs><g transform="translate(960, 0)"><path d="M0 486C-67.6 483.8 -135.1 481.6 -186 449C-236.8 416.4 -271 353.5 -301.9 301.9C-332.9 250.4 -360.7 210.3 -390.8 161.9C-420.9 113.5 -453.5 56.7 -486 0L0 0Z" fill="#cfefff"></path></g><g transform="translate(0, 540)"><path d="M0 -486C55.7 -464.3 111.4 -442.6 175.7 -424.1C239.9 -405.5 312.7 -390 343.7 -343.7C374.7 -297.3 363.9 -220.1 380.6 -157.7C397.4 -95.2 441.7 -47.6 486 0L0 0Z" fill="#cfefff"></path></g></svg>