<svg id="visual" viewBox="0 0 960 540" width="960" height="540" xmlns="http://www.w3.org/2000/svg" xmlns:xlink="http://www.w3.org/1999/xlink" version="1.1"><rect x="0" y="0" width="960" height="540" fill="#ffffff"></rect><path d="M514 0L446 0L446 49L516 49L516 98L563 98L563 147L593 147L593 196L289 196L289 245L116 245L116 295L286 295L286 344L118 344L118 393L623 393L623 442L630 442L630 491L274 491L274 540L0 540L0 491L0 491L0 442L0 442L0 393L0 393L0 344L0 344L0 295L0 295L0 245L0 245L0 196L0 196L0 147L0 147L0 98L0 98L0 49L0 49L0 0L0 0Z" fill="#b2e5ff"></path><path d="M84 0L238 0L238 49L599 49L599 98L267 98L267 147L654 147L654 196L117 196L117 245L496 245L496 295L427 295L427 344L270 344L270 393L404 393L404 442L693 442L693 491L113 491L113 540L0 540L0 491L0 491L0 442L0 442L0 393L0 393L0 344L0 344L0 295L0 295L0 245L0 245L0 196L0 196L0 147L0 147L0 98L0 98L0 49L0 49L0 0L0 0Z" fill="#c1eaff"></path><path d="M435 0L107 0L107 49L103 49L103 98L613 98L613 147L582 147L582 196L388 196L388 245L571 245L571 295L105 295L105 344L589 344L589 393L200 393L200 442L525 442L525 491L321 491L321 540L0 540L0 491L0 491L0 442L0 442L0 393L0 393L0 344L0 344L0 295L0 295L0 245L0 245L0 196L0 196L0 147L0 147L0 98L0 98L0 49L0 49L0 0L0 0Z" fill="#cfefff"></path><path d="M197 0L210 0L210 49L358 49L358 98L412 98L412 147L474 147L474 196L234 196L234 245L145 245L145 295L70 295L70 344L489 344L489 393L70 393L70 442L83 442L83 491L397 491L397 540L0 540L0 491L0 491L0 442L0 442L0 393L0 393L0 344L0 344L0 295L0 295L0 245L0 245L0 196L0 196L0 147L0 147L0 98L0 98L0 49L0 49L0 0L0 0Z" fill="#cfefff"></path><path d="M119 0L154 0L154 49L229 49L229 98L75 98L75 147L315 147L315 196L367 196L367 245L65 245L65 295L131 295L131 344L48 344L48 393L295 393L295 442L241 442L241 491L310 491L310 540L0 540L0 491L0 491L0 442L0 442L0 393L0 393L0 344L0 344L0 295L0 295L0 245L0 245L0 196L0 196L0 147L0 147L0 98L0 98L0 49L0 49L0 0L0 0Z" fill="#c1eaff"></path><path d="M216 0L125 0L125 49L137 49L137 98L154 98L154 147L131 147L131 196L156 196L156 245L201 245L201 295L181 295L181 344L80 344L80 393L76 393L76 442L151 442L151 491L187 491L187 540L0 540L0 491L0 491L0 442L0 442L0 393L0 393L0 344L0 344L0 295L0 295L0 245L0 245L0 196L0 196L0 147L0 147L0 98L0 98L0 49L0 49L0 0L0 0Z" fill="#b2e5ff"></path></svg>