<svg width="579" height="116" viewBox="0 0 579 116" fill="none" xmlns="http://www.w3.org/2000/svg">
<path d="M49.408 19.968L35.84 26.752L49.408 33.536L43.264 43.136L31.36 35.072L32.256 48.512H20.864L21.76 35.2L9.984 43.136L3.84 33.536L17.28 26.752L3.84 19.968L9.856 10.368L21.888 18.56L20.864 4.86402H32.256L31.232 18.688L43.392 10.368L49.408 19.968ZM103.938 19.968L90.37 26.752L103.938 33.536L97.794 43.136L85.89 35.072L86.786 48.512H75.394L76.29 35.2L64.514 43.136L58.37 33.536L71.81 26.752L58.37 19.968L64.386 10.368L76.418 18.56L75.394 4.86402H86.786L85.762 18.688L97.922 10.368L103.938 19.968ZM158.468 19.968L144.9 26.752L158.468 33.536L152.324 43.136L140.42 35.072L141.316 48.512H129.924L130.82 35.2L119.044 43.136L112.9 33.536L126.34 26.752L112.9 19.968L118.916 10.368L130.948 18.56L129.924 4.86402H141.316L140.292 18.688L152.452 10.368L158.468 19.968ZM256.201 88.064H193.737V73.472H202.697V19.456H193.737V4.86402H231.497V19.456H219.849V73.472H241.609L244.169 57.344L258.761 58.624L256.201 88.064ZM272.536 20.096V2.94402H289.048V20.096H272.536ZM297.368 88.064H265.496V75.648H273.176V42.88H264.856V30.336H289.688V75.648H297.368V88.064ZM375.298 88.064H343.426V75.648H351.106V55.552C351.106 50.6027 350.253 47.0614 348.546 44.928C346.925 42.7947 344.493 41.728 341.25 41.728C337.325 41.728 334.295 42.9654 332.162 45.44C330.029 47.8294 328.919 50.9867 328.834 54.912V75.648H336.514V88.064H304.642V75.648H312.322V42.88H304.002V30.336H328.834V39.168C332.674 32.512 338.861 29.184 347.394 29.184C352.855 29.184 357.591 30.8054 361.602 34.048C365.613 37.2907 367.618 42.3254 367.618 49.152V75.648H375.298V88.064ZM447.077 88.064H417.509V75.648H422.885L412.901 64.256H404.325V75.648H409.573V88.064H380.133V75.648H387.813V12.544H379.493V2.28882e-05H404.325V52.608H413.925L422.373 42.88H415.461V30.336H444.389V42.88H438.117L425.701 56.96L442.085 75.648H447.077V88.064ZM508.754 69.888C508.327 75.008 505.81 79.5307 501.202 83.456C496.594 87.3814 490.151 89.344 481.874 89.344C473.255 89.344 466.13 86.912 460.498 82.048C454.951 77.184 452.178 69.9307 452.178 60.288C452.178 51.4134 454.695 44.032 459.73 38.144C464.85 32.1707 471.975 29.184 481.106 29.184C489.127 29.184 495.613 31.488 500.562 36.096C505.597 40.704 508.157 46.7627 508.242 54.272C508.242 57.088 507.943 59.8614 507.346 62.592H469.458C470.397 71.7227 474.919 76.288 483.026 76.288C487.463 76.288 490.45 75.2214 491.986 73.088C493.607 70.9547 494.589 69.0347 494.93 67.328L508.754 69.888ZM491.218 52.992C491.559 50.0907 490.919 47.36 489.298 44.8C487.762 42.24 485.031 40.96 481.106 40.96C477.693 40.96 475.047 42.0694 473.17 44.288C471.293 46.5067 470.098 49.408 469.586 52.992H491.218ZM577.589 42.752H571.957L553.397 88.064L547.893 102.528H555.445V115.328H523.573V102.528H532.789L537.397 88.96L517.173 42.752H511.285V30.336H540.725V42.752H534.965L546.741 69.376H547.509L556.213 42.752H551.221V30.336H577.589V42.752Z" fill="url(#paint0_linear_2009_12)"/>
<path d="M0 100.864H517.172V107.264H0V100.864ZM561.848 100.864H578.485V107.264H561.848V100.864Z" fill="url(#paint1_linear_2009_12)"/>
<defs>
<linearGradient id="paint0_linear_2009_12" x1="-106.24" y1="22.564" x2="549.168" y2="-73.7113" gradientUnits="userSpaceOnUse">
<stop offset="0.0217535" stop-color="#20A3DB"/>
<stop offset="0.907636" stop-color="#1B5EAD"/>
</linearGradient>
<linearGradient id="paint1_linear_2009_12" x1="-106.24" y1="22.564" x2="549.168" y2="-73.7113" gradientUnits="userSpaceOnUse">
<stop offset="0.0217535" stop-color="#20A3DB"/>
<stop offset="0.907636" stop-color="#1B5EAD"/>
</linearGradient>
</defs>
</svg>
