<svg width="163" height="103" viewBox="0 0 163 103" fill="none" xmlns="http://www.w3.org/2000/svg">
<path d="M49.408 15.104L35.84 21.888L49.408 28.672L43.264 38.272L31.36 30.208L32.256 43.648H20.864L21.76 30.336L9.98403 38.272L3.84003 28.672L17.28 21.888L3.84003 15.104L9.85603 5.50401L21.888 13.696L20.864 7.62939e-06H32.256L31.232 13.824L43.392 5.50401L49.408 15.104ZM103.938 15.104L90.37 21.888L103.938 28.672L97.794 38.272L85.89 30.208L86.786 43.648H75.394L76.29 30.336L64.514 38.272L58.37 28.672L71.81 21.888L58.37 15.104L64.386 5.50401L76.418 13.696L75.394 7.62939e-06H86.786L85.762 13.824L97.922 5.50401L103.938 15.104ZM158.468 15.104L144.9 21.888L158.468 28.672L152.324 38.272L140.42 30.208L141.316 43.648H129.924L130.82 30.336L119.044 38.272L112.9 28.672L126.34 21.888L112.9 15.104L118.916 5.50401L130.948 13.696L129.924 7.62939e-06H141.316L140.292 13.824L152.452 5.50401L158.468 15.104Z" fill="url(#paint0_linear_2013_2)"/>
<path d="M3.05176e-05 96H162.308V102.4H3.05176e-05V96Z" fill="url(#paint1_linear_2013_2)"/>
<defs>
<linearGradient id="paint0_linear_2013_2" x1="-30.1861" y1="17.7" x2="157.984" y2="9.91852" gradientUnits="userSpaceOnUse">
<stop offset="0.0217535" stop-color="#20A3DB"/>
<stop offset="0.907636" stop-color="#1B5EAD"/>
</linearGradient>
<linearGradient id="paint1_linear_2013_2" x1="-30.1861" y1="17.7" x2="157.984" y2="9.91852" gradientUnits="userSpaceOnUse">
<stop offset="0.0217535" stop-color="#20A3DB"/>
<stop offset="0.907636" stop-color="#1B5EAD"/>
</linearGradient>
</defs>
</svg>
